# xmcd
#
# Track frame offsets: 
#        150
#        6220
#        29217
#        50972
#        71622
#        91735
#        111740
#        134472
#        160325
#        181092
#        203425
#
# Disc length: 2949 seconds
#
# Revision: 0
# Processed by: cddbd v1.5.2PL0 Copyright (c) Steve Scherf et al.
# Submitted via: ExactAudioCopy v1.0b3
#
DISCID=9d0b830b
DTITLE=Phuong Hong Que - Que Huong va Long Me
DYEAR=1995
DGENRE=
TTITLE0=Loi gioi thieu
TTITLE1=Roi hai muoi nam sau
TTITLE2=Mong cho
TTITLE3=Thuong qua Me oi
TTITLE4=Tinh ca tren lua
TTITLE5=Huyen thoai Me
TTITLE6=Chiec ao ba ba
TTITLE7=Bong hong cai ao
TTITLE8=Ru lang
TTITLE9=Ngay xua co Me
TTITLE10=Goi nho que huong
EXTD=
EXTT0=
EXTT1=
EXTT2=
EXTT3=
EXTT4=
EXTT5=
EXTT6=
EXTT7=
EXTT8=
EXTT9=
EXTT10=
PLAYORDER=
